<svg width="260" height="260" viewBox="0 0 260 260" fill="none" xmlns="http://www.w3.org/2000/svg">
 <defs><linearGradient id="rim" x1="44" y1="39" x2="210" y2="221"><stop stop-color="#F5FFFF"/><stop offset=".22" stop-color="#8DEBFF"/><stop offset=".55" stop-color="#5C82F1"/><stop offset=".82" stop-color="#8B69ED"/><stop offset="1" stop-color="#3857B7"/></linearGradient><radialGradient id="face" cx="0" cy="0" r="1" gradientTransform="translate(94 78) rotate(47) scale(145)"><stop stop-color="#EFFDFF"/><stop offset=".31" stop-color="#8DE4FF"/><stop offset=".68" stop-color="#6788EC"/><stop offset="1" stop-color="#6753C8"/></radialGradient><filter id="s" x="10" y="12" width="240" height="238"><feDropShadow dx="0" dy="20" stdDeviation="15" flood-color="#3D6BC3" flood-opacity=".34"/></filter></defs>
 <g filter="url(#s)" transform="rotate(-18 130 130)"><ellipse cx="130" cy="124" rx="91" ry="81" fill="url(#rim)" stroke="white" stroke-opacity=".9" stroke-width="3"/><ellipse cx="130" cy="117" rx="75" ry="66" fill="url(#face)" stroke="#DFFFFF" stroke-opacity=".76" stroke-width="3"/><ellipse cx="130" cy="117" rx="56" ry="49" stroke="white" stroke-opacity=".38" stroke-width="3"/><path d="M130 77l12 27 30 4-22 20 7 29-27-16-27 16 7-29-22-20 30-4 12-27z" fill="white" fill-opacity=".42"/><path d="M70 93c18-32 48-47 78-41" stroke="white" stroke-opacity=".82" stroke-width="12" stroke-linecap="round"/><ellipse cx="102" cy="69" rx="18" ry="8" fill="white" fill-opacity=".82" transform="rotate(-25 102 69)"/></g>
</svg>
