<svg width="260" height="260" viewBox="0 0 260 260" fill="none" xmlns="http://www.w3.org/2000/svg">
 <defs><linearGradient id="body" x1="62" y1="36" x2="202" y2="224"><stop stop-color="#FFFFFF"/><stop offset=".18" stop-color="#DDF6FF"/><stop offset=".43" stop-color="#81B9FF"/><stop offset=".72" stop-color="#6E6BED"/><stop offset="1" stop-color="#3946B7"/></linearGradient><linearGradient id="glass" x1="84" y1="62" x2="171" y2="187"><stop stop-color="white" stop-opacity=".94"/><stop offset=".38" stop-color="#C7ECFF" stop-opacity=".4"/><stop offset="1" stop-color="#5869E5" stop-opacity=".12"/></linearGradient><filter id="shadow" x="10" y="6" width="240" height="246"><feDropShadow dx="0" dy="22" stdDeviation="14" flood-color="#4355C7" flood-opacity=".34"/></filter><filter id="blur"><feGaussianBlur stdDeviation="11"/></filter></defs>
 <circle cx="132" cy="132" r="88" fill="#729EFF" fill-opacity=".2" filter="url(#blur)"/>
 <g filter="url(#shadow)" transform="rotate(-8 130 130)"><path d="M130 23l25 64 69 7-53 45 16 68-57-36-57 36 16-68-53-45 69-7 25-64z" fill="url(#body)" stroke="white" stroke-opacity=".9" stroke-width="3"/><path d="M130 23v148M36 94l135 45M224 94L89 139" stroke="white" stroke-opacity=".28" stroke-width="2"/><path d="M84 78c16-30 42-42 68-37" stroke="white" stroke-opacity=".86" stroke-width="13" stroke-linecap="round"/><path d="M130 51l16 43 45 5-35 28 11 45-37-24-37 24 11-45-35-28 45-5 16-43z" fill="url(#glass)"/></g>
</svg>
