<svg width="290" height="290" viewBox="0 0 290 290" fill="none" xmlns="http://www.w3.org/2000/svg">
 <defs><linearGradient id="a" x1="73" y1="42" x2="218" y2="244"><stop stop-color="#F4FFFF"/><stop offset=".22" stop-color="#7FF7F0"/><stop offset=".49" stop-color="#42B8FF"/><stop offset=".74" stop-color="#526CE9"/><stop offset="1" stop-color="#29359E"/></linearGradient><linearGradient id="b" x1="104" y1="66" x2="178" y2="197"><stop stop-color="white" stop-opacity=".88"/><stop offset="1" stop-color="#60BFFF" stop-opacity=".1"/></linearGradient><filter id="s" x="16" y="17" width="260" height="260"><feDropShadow dx="0" dy="24" stdDeviation="17" flood-color="#2D69C6" flood-opacity=".38"/></filter><filter id="g"><feGaussianBlur stdDeviation="12"/></filter></defs>
 <ellipse cx="150" cy="238" rx="81" ry="25" fill="#459FE8" fill-opacity=".24" filter="url(#g)"/>
 <g filter="url(#s)" transform="rotate(8 145 145)"><path d="M68 103l49-62h65l44 63-32 120-100 10-26-131z" fill="url(#a)" stroke="white" stroke-opacity=".9" stroke-width="3"/><path d="M68 103l77 30 81-29M145 133L117 41M145 133l37-92M145 133l49 91M145 133l-51 101" stroke="white" stroke-opacity=".52" stroke-width="3"/><path d="M84 93l37-42h22l-25 59-34-17z" fill="white" fill-opacity=".66"/><path d="M145 133l81-29-32 120-49-91z" fill="#1D4ED8" fill-opacity=".23"/><path d="M112 58l28-7-17 45-31 4 20-42z" fill="url(#b)"/></g>
</svg>
