<svg width="210" height="210" viewBox="0 0 210 210" fill="none" xmlns="http://www.w3.org/2000/svg">
 <defs><linearGradient id="a" x1="58" y1="38" x2="149" y2="176"><stop stop-color="#EEFFFF"/><stop offset=".25" stop-color="#78F2EA"/><stop offset=".56" stop-color="#3CA9FF"/><stop offset="1" stop-color="#5A5DE8"/></linearGradient><filter id="s" x="20" y="22" width="174" height="174"><feDropShadow dx="0" dy="16" stdDeviation="12" flood-color="#397DD2" flood-opacity=".3"/></filter></defs>
 <g filter="url(#s)" transform="rotate(8 105 105)"><path d="M53 78l33-42h45l30 43-22 82-68 7-18-90z" fill="url(#a)" stroke="white" stroke-opacity=".8" stroke-width="2"/><path d="M53 78l52 20 56-19M105 98L86 36M105 98l26-62M105 98l34 63M105 98l-34 70" stroke="white" stroke-opacity=".46" stroke-width="2"/><path d="M64 72l25-28h15L87 84 64 72z" fill="white" fill-opacity=".58"/><path d="M105 98l56-19-22 82-34-63z" fill="#215ED7" fill-opacity=".24"/></g>
</svg>
