<svg width="340" height="340" viewBox="0 0 340 340" fill="none" xmlns="http://www.w3.org/2000/svg">
 <defs><linearGradient id="rim" x1="60" y1="45" x2="281" y2="290"><stop stop-color="#FFFFED"/><stop offset=".2" stop-color="#FFE68A"/><stop offset=".49" stop-color="#D98B20"/><stop offset=".72" stop-color="#FFF0A7"/><stop offset="1" stop-color="#A9580F"/></linearGradient><radialGradient id="face" cx="0" cy="0" r="1" gradientTransform="translate(126 99) rotate(48) scale(190)"><stop stop-color="#FFFFF2"/><stop offset=".3" stop-color="#FFE999"/><stop offset=".67" stop-color="#F1B23E"/><stop offset="1" stop-color="#C66F19"/></radialGradient><filter id="s" x="9" y="15" width="322" height="315"><feDropShadow dx="0" dy="28" stdDeviation="20" flood-color="#A66118" flood-opacity=".36"/></filter><filter id="g"><feGaussianBlur stdDeviation="13"/></filter></defs>
 <ellipse cx="178" cy="284" rx="108" ry="27" fill="#E8A334" fill-opacity=".25" filter="url(#g)"/>
 <g filter="url(#s)" transform="rotate(18 170 170)"><ellipse cx="170" cy="158" rx="122" ry="108" fill="url(#rim)" stroke="#FFF9D5" stroke-width="4"/><ellipse cx="170" cy="150" rx="101" ry="88" fill="url(#face)" stroke="#FFF6BF" stroke-width="4"/><ellipse cx="170" cy="150" rx="77" ry="67" stroke="#B96A18" stroke-opacity=".46" stroke-width="3"/><path d="M170 94l16 36 40 6-29 27 9 39-36-21-36 21 9-39-29-27 40-6 16-36z" fill="white" fill-opacity=".7" stroke="#D38824" stroke-opacity=".4"/><path d="M86 119c23-47 70-67 113-54" stroke="white" stroke-opacity=".88" stroke-width="16" stroke-linecap="round"/><ellipse cx="132" cy="84" rx="25" ry="10" fill="white" fill-opacity=".8" transform="rotate(-24 132 84)"/></g>
</svg>
