<svg width="190" height="190" viewBox="0 0 190 190" fill="none" xmlns="http://www.w3.org/2000/svg">
 <defs><linearGradient id="a" x1="44" y1="24" x2="143" y2="162"><stop stop-color="#fff"/><stop offset=".25" stop-color="#E8E0FF" stop-opacity=".98"/><stop offset=".58" stop-color="#9D86FF" stop-opacity=".82"/><stop offset="1" stop-color="#5B70E9" stop-opacity=".42"/></linearGradient><linearGradient id="b" x1="67" y1="43" x2="127" y2="132"><stop stop-color="white" stop-opacity=".9"/><stop offset="1" stop-color="white" stop-opacity="0"/></linearGradient><filter id="s" x="7" y="5" width="176" height="178"><feDropShadow dx="0" dy="16" stdDeviation="10" flood-color="#6251C8" flood-opacity=".28"/></filter><filter id="g"><feGaussianBlur stdDeviation="8"/></filter></defs>
 <circle cx="96" cy="95" r="70" fill="#9C89FF" fill-opacity=".15" filter="url(#g)"/>
 <g filter="url(#s)" transform="rotate(-8 95 95)"><path d="M95 18l19 47 50 5-38 33 11 50-42-26-42 26 11-50-38-33 50-5 19-47z" fill="url(#a)" stroke="white" stroke-opacity=".9" stroke-width="2"/><path d="M95 18v109M26 70l100 33M164 70l-100 33" stroke="white" stroke-opacity=".2"/><path d="M67 62c10-22 27-31 42-28" stroke="url(#b)" stroke-width="9" stroke-linecap="round"/><path d="M95 39l11 32 34 4-27 21 8 34-26-18-26 18 8-34-27-21 34-4 11-32z" fill="white" fill-opacity=".16"/></g>
</svg>
