<svg width="240" height="240" viewBox="0 0 240 240" fill="none" xmlns="http://www.w3.org/2000/svg">
 <defs><linearGradient id="rim" x1="37" y1="38" x2="203" y2="200"><stop stop-color="#FFFCE2"/><stop offset=".2" stop-color="#FFE38B"/><stop offset=".5" stop-color="#E99C31"/><stop offset=".76" stop-color="#FFE99A"/><stop offset="1" stop-color="#B96A18"/></linearGradient><radialGradient id="face" cx="0" cy="0" r="1" gradientTransform="translate(87 67) rotate(45) scale(141)"><stop stop-color="#FFFFED"/><stop offset=".3" stop-color="#FFE899"/><stop offset=".68" stop-color="#F5B848"/><stop offset="1" stop-color="#C77820"/></radialGradient><linearGradient id="shine" x1="63" y1="48" x2="147" y2="145"><stop stop-color="white" stop-opacity=".95"/><stop offset="1" stop-color="white" stop-opacity="0"/></linearGradient><filter id="s" x="8" y="12" width="224" height="222"><feDropShadow dx="0" dy="20" stdDeviation="14" flood-color="#AC6B20" flood-opacity=".3"/></filter><filter id="g"><feGaussianBlur stdDeviation="9"/></filter></defs>
 <ellipse cx="126" cy="190" rx="77" ry="20" fill="#F3B33E" fill-opacity=".22" filter="url(#g)"/>
 <g filter="url(#s)" transform="rotate(17 120 120)"><ellipse cx="120" cy="112" rx="86" ry="76" fill="url(#rim)" stroke="#FFF8C6" stroke-width="3"/><ellipse cx="120" cy="106" rx="72" ry="63" fill="url(#face)" stroke="#FFF7C7" stroke-width="3"/><ellipse cx="120" cy="106" rx="56" ry="48" stroke="#C97B23" stroke-opacity=".5" stroke-width="2"/><path d="M120 64l11 25 28 4-20 18 6 27-25-14-25 14 6-27-20-18 28-4 11-25z" fill="#fff" fill-opacity=".7" stroke="#D58B2C" stroke-opacity=".35"/><path d="M58 84c17-34 53-49 84-39" stroke="url(#shine)" stroke-width="11" stroke-linecap="round"/><ellipse cx="93" cy="62" rx="16" ry="7" fill="white" fill-opacity=".72" transform="rotate(-24 93 62)"/></g>
</svg>
