<svg width="920" height="650" viewBox="0 0 920 650" fill="none" xmlns="http://www.w3.org/2000/svg">
  <defs>
    <linearGradient id="trail" x1="86" y1="465" x2="840" y2="168" gradientUnits="userSpaceOnUse">
      <stop stop-color="#BFE7FF" stop-opacity="0"/>
      <stop offset=".18" stop-color="#D8F1FF" stop-opacity=".72"/>
      <stop offset=".5" stop-color="white"/>
      <stop offset=".75" stop-color="#C9FFF0" stop-opacity=".76"/>
      <stop offset="1" stop-color="#BFD6FF" stop-opacity="0"/>
    </linearGradient>
    <linearGradient id="trail2" x1="120" y1="520" x2="790" y2="220" gradientUnits="userSpaceOnUse">
      <stop stop-color="#9DCBFF" stop-opacity="0"/>
      <stop offset=".42" stop-color="#C8DBFF" stop-opacity=".48"/>
      <stop offset=".7" stop-color="white" stop-opacity=".82"/>
      <stop offset="1" stop-color="#A6F2DF" stop-opacity="0"/>
    </linearGradient>
    <filter id="glow" x="-30%" y="-30%" width="160%" height="160%"><feGaussianBlur stdDeviation="8"/></filter>
    <filter id="soft" x="-20%" y="-20%" width="140%" height="140%"><feGaussianBlur stdDeviation="2.5"/></filter>
  </defs>
  <ellipse cx="472" cy="408" rx="355" ry="116" transform="rotate(-8 472 408)" stroke="url(#trail)" stroke-width="16" opacity=".2" filter="url(#glow)"/>
  <ellipse cx="472" cy="408" rx="355" ry="116" transform="rotate(-8 472 408)" stroke="url(#trail)" stroke-width="3" opacity=".92" filter="url(#soft)"/>
  <ellipse cx="498" cy="388" rx="272" ry="84" transform="rotate(11 498 388)" stroke="url(#trail2)" stroke-width="2" opacity=".8"/>
  <path d="M70 469C238 404 326 455 474 421C633 384 704 250 850 165" stroke="url(#trail)" stroke-width="5" stroke-linecap="round" opacity=".82" filter="url(#soft)"/>
  <path d="M100 520C294 553 511 484 625 366C706 282 716 198 839 140" stroke="url(#trail2)" stroke-width="2" stroke-linecap="round" opacity=".72"/>
  <g fill="white"><circle cx="185" cy="446" r="3"/><circle cx="704" cy="270" r="4"/><circle cx="790" cy="197" r="2.5"/><circle cx="601" cy="420" r="2"/></g>
</svg>
